# xmcd
#
# Track frame offsets: 
#        150
#        14255
#        28592
#        47708
#        63457
#        81566
#        95196
#        108661
#        125445
#        139754
#
# Disc length: 2121 seconds
#
# Revision: 0
# Processed by: cddbd v1.5.2PL0 Copyright (c) Steve Scherf et al.
# Submitted via: ExactAudioCopyFreeDBPlugin 1.0
#
DISCID=8e08470a
DTITLE=Erin McCallum - Complicated Woman
DYEAR=2012
DGENRE=Blues
TTITLE0=Roll With The Punches
TTITLE1=The Truth
TTITLE2=Overtime
TTITLE3=Lost In Memphis, TN
TTITLE4=Complicated Woman
TTITLE5=10 Cent Raise
TTITLE6=Shame On Me
TTITLE7=People
TTITLE8=Check One, Take Two
TTITLE9=Hero
EXTD=
EXTT0=
EXTT1=
EXTT2=
EXTT3=
EXTT4=
EXTT5=
EXTT6=
EXTT7=
EXTT8=
EXTT9=
PLAYORDER=
